<svg xmlns="http://www.w3.org/2000/svg" version="1.1" xmlns:xlink="http://www.w3.org/1999/xlink" xmlns:svgjs="http://svgjs.dev/svgjs" width="1500" height="1500" viewBox="0 0 1500 1500"><rect width="1500" height="1500" fill="#000000"></rect><g transform="matrix(0.6666666666666666,0,0,0.6666666666666666,249.18922647647713,252.73633632012456)"><svg viewBox="0 0 248 247" data-background-color="#000000" preserveAspectRatio="xMidYMid meet" height="1493" width="1500" xmlns="http://www.w3.org/2000/svg" xmlns:xlink="http://www.w3.org/1999/xlink"><g id="tight-bounds" transform="matrix(1,0,0,1,0.2010718338336801,-0.10000844380854801)"><svg viewBox="0 0 247.59785633233264 247.2" height="247.2" width="247.59785633233264"><g><svg viewBox="0 0 395.5199999999999 394.88445275053994" height="247.2" width="247.59785633233264"><g transform="matrix(1,0,0,1,0,278.1638912978052)"><svg viewBox="0 0 395.5199999999999 116.72056145273474" height="116.72056145273474" width="395.5199999999999"><g id="textblocktransform"><svg viewBox="0 0 395.5199999999999 116.72056145273474" height="116.72056145273474" width="395.5199999999999" id="textblock"><g><svg viewBox="0 0 395.5199999999999 116.72056145273474" height="116.72056145273474" width="395.5199999999999"><g transform="matrix(1,0,0,1,0,0)"><svg width="395.5199999999999" viewBox="2.05 -36.41 158.14 46.67110028124" height="116.72056145273474" data-palette-color="#dd1818"><path d="M12.55 0.6L12.55 0.6Q9.75 0.6 7.35-0.9 4.95-2.4 3.5-5.1 2.05-7.8 2.05-11.35L2.05-11.35Q2.05-14.45 3.53-17.18 5-19.9 7.63-21.58 10.25-23.25 13.6-23.25L13.6-23.25Q15.2-23.25 16.75-22.88 18.3-22.5 19.4-21.85L19.4-21.85 19.55-21.85 19.55-29.5Q19.55-30.4 19.48-31.18 19.4-31.95 18.9-32.43 18.4-32.9 17-32.9L17-32.9Q16.55-32.9 16.18-33.02 15.8-33.15 15.8-33.9L15.8-33.9Q15.8-34.65 16.6-34.8L16.6-34.8Q18.9-35.15 20.13-35.5 21.35-35.85 22-36.1 22.65-36.35 23.15-36.4L23.15-36.4Q23.55-36.45 23.83-36.25 24.1-36.05 24.1-35.45L24.1-35.45 24.1-4.6Q24.1-1.65 28-1.65L28-1.65Q28.55-1.65 28.7-1.38 28.85-1.1 28.85-0.85L28.85-0.85Q28.85-0.15 28 0L28 0 20.05 0.55Q19.7 0.55 19.65 0.25 19.6-0.05 19.6-0.45L19.6-0.45 19.6-2.45 19.45-2.45Q18.2-1.15 16.32-0.28 14.45 0.6 12.55 0.6ZM14.25-1.9L14.25-1.9Q16.15-1.9 17.4-2.68 18.65-3.45 19.55-4.4L19.55-4.4 19.55-17.6Q19.3-18.45 18.63-19.33 17.95-20.2 16.82-20.83 15.7-21.45 14.1-21.45L14.1-21.45Q11.2-21.45 9.2-18.73 7.2-16 7.2-11.1L7.2-11.1Q7.2-8.75 7.98-6.63 8.75-4.5 10.3-3.2 11.85-1.9 14.25-1.9ZM30.9 10.25L30.9 10.25Q30.25 10.35 29.9 9.55L29.9 9.55Q29.85 9.15 29.87 8.83 29.9 8.5 30.3 8.35L30.3 8.35Q32.75 7.3 33.85 5.38 34.95 3.45 35.27 0.48 35.6-2.5 35.6-6.55L35.6-6.55 35.6-16.6Q35.6-17.5 35.52-18.28 35.45-19.05 34.95-19.53 34.45-20 33.05-20L33.05-20Q32.6-20 32.22-20.13 31.85-20.25 31.85-21L31.85-21Q31.85-21.75 32.65-21.9L32.65-21.9Q34.95-22.25 36.17-22.6 37.4-22.95 38.05-23.2 38.7-23.45 39.2-23.5L39.2-23.5Q39.6-23.55 39.87-23.35 40.15-23.15 40.15-22.55L40.15-22.55 40.15-4.95Q40.15-1.2 39.32 1.95 38.5 5.1 36.47 7.25 34.45 9.4 30.9 10.25ZM37.5-29.05L37.5-29.05Q36.1-29.05 35.15-29.93 34.2-30.8 34.2-32.1L34.2-32.1Q34.2-33.25 35.35-34.15 36.5-35.05 37.95-35.05L37.95-35.05Q39.2-35.05 40-34.18 40.8-33.3 40.8-31.95L40.8-31.95Q40.8-30.75 39.85-29.9 38.9-29.05 37.5-29.05ZM57.75 0.6L57.75 0.6Q53.9 0.6 51.27-1.05 48.65-2.7 47.35-5.45 46.05-8.2 46.05-11.45L46.05-11.45Q46.05-13.65 46.82-15.73 47.6-17.8 49.05-19.53 50.5-21.25 52.55-22.25 54.6-23.25 57.2-23.25L57.2-23.25Q61.8-23.25 64.12-20.88 66.45-18.5 66.8-14.85L66.8-14.85Q66.8-13.1 65.82-12.55 64.84-12 63.3-12L63.3-12 51.15-12Q51.15-9.1 51.95-6.83 52.75-4.55 54.47-3.23 56.2-1.9 59.05-1.9L59.05-1.9Q61.15-1.9 62.65-2.8 64.15-3.7 65.55-5.95L65.55-5.95Q65.95-6.45 66.65-6L66.65-6Q67.05-5.8 67.15-5.38 67.25-4.95 67.05-4.65L67.05-4.65Q65.5-2.2 63.15-0.8 60.8 0.6 57.75 0.6ZM51.15-13.9L51.15-13.9 59.3-13.9Q60.5-13.9 61.22-14.38 61.95-14.85 62-16L62-16Q62-18.15 60.82-19.83 59.65-21.5 57.2-21.5L57.2-21.5Q54.7-21.5 53.02-19.5 51.35-17.5 51.15-13.9ZM82.54 0.5L79.59 0.5 73.19-17.25Q72.39-19.1 71.64-19.88 70.89-20.65 69.39-20.85L69.39-20.85Q68.74-20.95 68.52-21.05 68.29-21.15 68.24-21.8L68.24-21.8Q68.19-22.65 68.72-22.73 69.24-22.8 69.99-22.85L69.99-22.85Q73.09-23 74.84-21.95 76.59-20.9 77.69-18.4L77.69-18.4 82.29-5.45 82.44-5.45Q82.94-7.05 83.64-9.47 84.34-11.9 85.07-14.5 85.79-17.1 86.39-19.33 86.99-21.55 87.29-22.65L87.29-22.65 89.69-22.65 96.54-5.45 96.69-5.45Q97.39-7.55 98.04-10.08 98.69-12.6 99.24-14.93 99.79-17.25 100.19-18.75L100.19-18.75Q100.49-20.1 100.09-20.5 99.69-20.9 98.29-20.9L98.29-20.9Q97.84-20.9 97.54-20.98 97.24-21.05 97.19-21.8L97.19-21.8Q97.19-22.1 97.37-22.45 97.54-22.8 97.89-22.8L97.89-22.8Q99.34-22.75 100.42-22.7 101.49-22.65 102.79-22.65L102.79-22.65Q104.09-22.65 104.82-22.7 105.54-22.75 106.99-22.8L106.99-22.8Q107.39-22.8 107.57-22.45 107.74-22.1 107.74-21.8L107.74-21.8Q107.69-21.05 107.37-20.98 107.04-20.9 106.64-20.9L106.64-20.9Q104.84-20.9 103.82-20.3 102.79-19.7 102.34-17.95L102.34-17.95 96.79 0.5 93.84 0.5 87.49-15.85 82.54 0.5ZM119.99 0.6L119.99 0.6Q116.14 0.6 113.52-1.05 110.89-2.7 109.59-5.45 108.29-8.2 108.29-11.45L108.29-11.45Q108.29-13.65 109.07-15.73 109.84-17.8 111.29-19.53 112.74-21.25 114.79-22.25 116.84-23.25 119.44-23.25L119.44-23.25Q124.04-23.25 126.37-20.88 128.69-18.5 129.04-14.85L129.04-14.85Q129.04-13.1 128.06-12.55 127.09-12 125.54-12L125.54-12 113.39-12Q113.39-9.1 114.19-6.83 114.99-4.55 116.72-3.23 118.44-1.9 121.29-1.9L121.29-1.9Q123.39-1.9 124.89-2.8 126.39-3.7 127.79-5.95L127.79-5.95Q128.19-6.45 128.89-6L128.89-6Q129.29-5.8 129.39-5.38 129.49-4.95 129.29-4.65L129.29-4.65Q127.74-2.2 125.39-0.8 123.04 0.6 119.99 0.6ZM113.39-13.9L113.39-13.9 121.54-13.9Q122.74-13.9 123.47-14.38 124.19-14.85 124.24-16L124.24-16Q124.24-18.15 123.07-19.83 121.89-21.5 119.44-21.5L119.44-21.5Q116.94-21.5 115.27-19.5 113.59-17.5 113.39-13.9ZM143.89 0.6L143.89 0.6Q141.09 0.6 138.69-0.9 136.29-2.4 134.84-5.1 133.39-7.8 133.39-11.35L133.39-11.35Q133.39-14.45 134.86-17.18 136.34-19.9 138.96-21.58 141.59-23.25 144.94-23.25L144.94-23.25Q146.54-23.25 148.09-22.88 149.64-22.5 150.74-21.85L150.74-21.85 150.89-21.85 150.89-29.5Q150.89-30.4 150.81-31.18 150.74-31.95 150.24-32.43 149.74-32.9 148.34-32.9L148.34-32.9Q147.89-32.9 147.51-33.02 147.14-33.15 147.14-33.9L147.14-33.9Q147.14-34.65 147.94-34.8L147.94-34.8Q150.24-35.15 151.46-35.5 152.69-35.85 153.34-36.1 153.99-36.35 154.49-36.4L154.49-36.4Q154.89-36.45 155.16-36.25 155.44-36.05 155.44-35.45L155.44-35.45 155.44-4.6Q155.44-1.65 159.34-1.65L159.34-1.65Q159.89-1.65 160.04-1.38 160.19-1.1 160.19-0.85L160.19-0.85Q160.19-0.15 159.34 0L159.34 0 151.39 0.55Q151.04 0.55 150.99 0.25 150.94-0.05 150.94-0.45L150.94-0.45 150.94-2.45 150.79-2.45Q149.54-1.15 147.66-0.28 145.79 0.6 143.89 0.6ZM145.59-1.9L145.59-1.9Q147.49-1.9 148.74-2.68 149.99-3.45 150.89-4.4L150.89-4.4 150.89-17.6Q150.64-18.45 149.96-19.33 149.29-20.2 148.16-20.83 147.04-21.45 145.44-21.45L145.44-21.45Q142.54-21.45 140.54-18.73 138.54-16 138.54-11.1L138.54-11.1Q138.54-8.75 139.31-6.63 140.09-4.5 141.64-3.2 143.19-1.9 145.59-1.9Z" opacity="1" transform="matrix(1,0,0,1,0,0)" fill="#dd1818" class="wordmark-text-0" data-fill-palette-color="primary" id="text-0"></path></svg></g></svg></g></svg></g></svg></g><g transform="matrix(1,0,0,1,86.23297761661316,0)"><svg viewBox="0 0 223.05404476677361 223.05404476677361" height="223.05404476677361" width="223.05404476677361"><g><svg></svg></g><g id="icon-0"><svg viewBox="0 0 223.05404476677361 223.05404476677361" height="223.05404476677361" width="223.05404476677361"><g><path d="M0 111.527c0-61.595 49.932-111.527 111.527-111.527 61.595 0 111.527 49.932 111.527 111.527 0 61.595-49.932 111.527-111.527 111.527-61.595 0-111.527-49.932-111.527-111.527zM111.527 212.528c55.781 0 101.001-45.22 101.001-101.001 0-55.781-45.22-101.001-101.001-101.001-55.781 0-101.001 45.22-101.001 101.001 0 55.781 45.22 101.001 101.001 101.001z" data-fill-palette-color="tertiary" fill="#f6efef" stroke="transparent"></path></g><g transform="matrix(1,0,0,1,50.912188469651724,50.911379905317034)"><svg viewBox="0 0 121.22966782747017 121.23128495613955" height="121.23128495613955" width="121.22966782747017"><g><svg xmlns="http://www.w3.org/2000/svg" xmlns:xlink="http://www.w3.org/1999/xlink" version="1.1" x="0" y="0" viewBox="12.517 14.556 74.96600000000001 74.96700000000001" style="enable-background:new 0 0 100 100;" xml:space="preserve" height="121.23128495613955" width="121.22966782747017" class="icon-cg-0" data-fill-palette-color="accent" id="cg-0"><g fill="#f60000" data-fill-palette-color="accent"><g fill="#f60000" data-fill-palette-color="accent"><path d="M35.289 74.909H49.5V52.54H29.585c0.003 1.863 0.106 3.772 0.353 5.736C30.75 64.735 32.816 70.29 35.289 74.909z" fill="#f60000" data-fill-palette-color="accent"></path></g><g fill="#f60000" data-fill-palette-color="accent"><path d="M49.5 29.051H35.679c-3.217 6.006-5.921 13.636-6.097 22.489H49.5V29.051z" fill="#f60000" data-fill-palette-color="accent"></path></g><g fill="#f60000" data-fill-palette-color="accent"><path d="M28.581 51.54c0.173-8.812 2.799-16.434 5.971-22.489H20.389c-4.841 6.227-7.761 14.017-7.872 22.489H28.581z" fill="#f60000" data-fill-palette-color="accent"></path></g><g fill="#f60000" data-fill-palette-color="accent"><path d="M20.295 74.909h13.853c-2.411-4.617-4.401-10.136-5.203-16.508-0.253-2.007-0.357-3.957-0.36-5.861H12.517C12.628 60.958 15.51 68.702 20.295 74.909z" fill="#f60000" data-fill-palette-color="accent"></path></g><g fill="#f60000" data-fill-palette-color="accent"><path d="M70.063 58.276c0.247-1.964 0.35-3.873 0.353-5.736H50.5v22.369h14.211C67.184 70.29 69.25 64.735 70.063 58.276z" fill="#f60000" data-fill-palette-color="accent"></path></g><g fill="#f60000" data-fill-palette-color="accent"><path d="M49.5 28.051V14.557c-1.02 0.013-2.03 0.064-3.029 0.158-1.322 1.233-6.099 5.955-10.244 13.337H49.5z" fill="#f60000" data-fill-palette-color="accent"></path></g><g fill="#f60000" data-fill-palette-color="accent"><path d="M46.68 89.381c0.931 0.082 1.871 0.129 2.82 0.142V75.909H35.844C39.593 82.547 44.1 87.101 46.68 89.381z" fill="#f60000" data-fill-palette-color="accent"></path></g><g fill="#f60000" data-fill-palette-color="accent"><path d="M50.5 28.051h13.273c-4.144-7.382-8.922-12.103-10.244-13.337-0.999-0.093-2.009-0.144-3.029-0.158V28.051z" fill="#f60000" data-fill-palette-color="accent"></path></g><g fill="#f60000" data-fill-palette-color="accent"><path d="M50.5 29.051V51.54h19.919c-0.177-8.853-2.881-16.483-6.097-22.489H50.5z" fill="#f60000" data-fill-palette-color="accent"></path></g><g fill="#f60000" data-fill-palette-color="accent"><path d="M35.092 28.051c3.58-6.519 7.69-11.076 9.749-13.145-9.473 1.304-17.817 6.14-23.655 13.145H35.092z" fill="#f60000" data-fill-palette-color="accent"></path></g><g fill="#f60000" data-fill-palette-color="accent"><path d="M34.702 75.909H21.083c5.874 7.108 14.32 12.003 23.91 13.284C42.222 86.594 38.123 82.119 34.702 75.909z" fill="#f60000" data-fill-palette-color="accent"></path></g><g fill="#f60000" data-fill-palette-color="accent"><path d="M65.298 75.909c-3.421 6.21-7.52 10.684-10.291 13.284 9.59-1.281 18.037-6.176 23.91-13.284H65.298z" fill="#f60000" data-fill-palette-color="accent"></path></g><g fill="#f60000" data-fill-palette-color="accent"><path d="M65.447 29.051c3.172 6.055 5.798 13.677 5.971 22.489h16.064c-0.111-8.472-3.031-16.262-7.872-22.489H65.447z" fill="#f60000" data-fill-palette-color="accent"></path></g><g fill="#f60000" data-fill-palette-color="accent"><path d="M53.32 89.381c2.58-2.28 7.087-6.834 10.836-13.472H50.5v13.614C51.449 89.51 52.389 89.463 53.32 89.381z" fill="#f60000" data-fill-palette-color="accent"></path></g><g fill="#f60000" data-fill-palette-color="accent"><path d="M71.415 52.54c-0.003 1.903-0.108 3.854-0.36 5.861-0.802 6.372-2.793 11.891-5.203 16.508h13.853c4.786-6.207 7.668-13.952 7.778-22.369H71.415z" fill="#f60000" data-fill-palette-color="accent"></path></g><g fill="#f60000" data-fill-palette-color="accent"><path d="M64.908 28.051h13.906c-5.838-7.005-14.182-11.841-23.655-13.145C57.218 16.975 61.328 21.533 64.908 28.051z" fill="#f60000" data-fill-palette-color="accent"></path></g></g></svg></g></svg></g></svg></g></svg></g><g></g></svg></g><defs></defs></svg><rect width="247.59785633233264" height="247.2" fill="none" stroke="none" visibility="hidden"></rect></g></svg></g></svg>